<svg width="143" height="28" viewBox="0 0 143 28" fill="none" xmlns="http://www.w3.org/2000/svg">
<rect width="143" height="28" rx="4" fill="#46F7B7"/>
<path d="M22.1985 14.2279C22.7228 14.3256 23.1538 14.5878 23.4915 15.0143C23.8292 15.4409 23.998 15.9297 23.998 16.4806C23.998 16.9783 23.8736 17.4182 23.6248 17.8003C23.3848 18.1735 23.0338 18.4668 22.5717 18.6801C22.1096 18.8934 21.5631 19 20.9321 19H16.9198V9.69566H20.7588C21.3898 9.69566 21.9319 9.79786 22.3851 10.0022C22.8472 10.2066 23.1938 10.491 23.4248 10.8554C23.6648 11.2197 23.7847 11.633 23.7847 12.0951C23.7847 12.6371 23.6381 13.0904 23.3448 13.4547C23.0605 13.8191 22.6783 14.0768 22.1985 14.2279ZM18.786 13.5347H20.4922C20.9365 13.5347 21.2787 13.4369 21.5186 13.2414C21.7586 13.037 21.8785 12.7482 21.8785 12.375C21.8785 12.0017 21.7586 11.7129 21.5186 11.5085C21.2787 11.3041 20.9365 11.2019 20.4922 11.2019H18.786V13.5347ZM20.6655 17.4804C21.1187 17.4804 21.4697 17.3737 21.7186 17.1605C21.9763 16.9472 22.1051 16.645 22.1051 16.254C22.1051 15.8541 21.9718 15.5431 21.7052 15.3209C21.4386 15.0899 21.0787 14.9743 20.6255 14.9743H18.786V17.4804H20.6655ZM25.0055 15.2809C25.0055 14.5344 25.1521 13.8724 25.4453 13.2948C25.7475 12.7171 26.1518 12.2728 26.6584 11.9618C27.1738 11.6507 27.747 11.4952 28.3779 11.4952C28.9289 11.4952 29.4088 11.6063 29.8176 11.8285C30.2353 12.0506 30.5685 12.3306 30.8173 12.6682V11.6152H32.6969V19H30.8173V17.9203C30.5774 18.2668 30.2441 18.5557 29.8176 18.7867C29.3999 19.0089 28.9156 19.12 28.3646 19.12C27.7425 19.12 27.1738 18.96 26.6584 18.6401C26.1518 18.3202 25.7475 17.8714 25.4453 17.2938C25.1521 16.7072 25.0055 16.0363 25.0055 15.2809ZM30.8173 15.3076C30.8173 14.8544 30.7285 14.4678 30.5507 14.1479C30.373 13.8191 30.1331 13.5702 29.8309 13.4014C29.5288 13.2237 29.2044 13.1348 28.8578 13.1348C28.5112 13.1348 28.1913 13.2192 27.8981 13.3881C27.6048 13.5569 27.3649 13.8057 27.1782 14.1345C27.0005 14.4545 26.9116 14.8366 26.9116 15.2809C26.9116 15.7253 27.0005 16.1163 27.1782 16.454C27.3649 16.7828 27.6048 17.036 27.8981 17.2138C28.2002 17.3915 28.5201 17.4804 28.8578 17.4804C29.2044 17.4804 29.5288 17.396 29.8309 17.2271C30.1331 17.0494 30.373 16.8005 30.5507 16.4806C30.7285 16.1518 30.8173 15.7608 30.8173 15.3076ZM35.466 10.7354C35.1372 10.7354 34.8617 10.6332 34.6395 10.4288C34.4262 10.2155 34.3196 9.95337 34.3196 9.64234C34.3196 9.33131 34.4262 9.07359 34.6395 8.8692C34.8617 8.65592 35.1372 8.54928 35.466 8.54928C35.7948 8.54928 36.0658 8.65592 36.2791 8.8692C36.5013 9.07359 36.6123 9.33131 36.6123 9.64234C36.6123 9.95337 36.5013 10.2155 36.2791 10.4288C36.0658 10.6332 35.7948 10.7354 35.466 10.7354ZM36.3857 11.6152V19H34.5195V11.6152H36.3857ZM42.3085 19L40.7889 16.7072L39.4426 19H37.4431L39.8558 15.2943L37.4164 11.6152H39.5226L41.0288 13.8946L42.3885 11.6152H44.388L41.9619 15.2943L44.4147 19H42.3085ZM44.9484 15.2809C44.9484 14.5344 45.095 13.8724 45.3883 13.2948C45.6904 12.7171 46.0948 12.2728 46.6013 11.9618C47.1167 11.6507 47.6899 11.4952 48.3209 11.4952C48.8718 11.4952 49.3517 11.6063 49.7605 11.8285C50.1782 12.0506 50.5114 12.3306 50.7603 12.6682V11.6152H52.6398V19H50.7603V17.9203C50.5203 18.2668 50.1871 18.5557 49.7605 18.7867C49.3428 19.0089 48.8585 19.12 48.3075 19.12C47.6855 19.12 47.1167 18.96 46.6013 18.6401C46.0948 18.3202 45.6904 17.8714 45.3883 17.2938C45.095 16.7072 44.9484 16.0363 44.9484 15.2809ZM50.7603 15.3076C50.7603 14.8544 50.6714 14.4678 50.4937 14.1479C50.3159 13.8191 50.076 13.5702 49.7738 13.4014C49.4717 13.2237 49.1473 13.1348 48.8008 13.1348C48.4542 13.1348 48.1343 13.2192 47.841 13.3881C47.5477 13.5569 47.3078 13.8057 47.1212 14.1345C46.9434 14.4545 46.8546 14.8366 46.8546 15.2809C46.8546 15.7253 46.9434 16.1163 47.1212 16.454C47.3078 16.7828 47.5477 17.036 47.841 17.2138C48.1431 17.3915 48.4631 17.4804 48.8008 17.4804C49.1473 17.4804 49.4717 17.396 49.7738 17.2271C50.076 17.0494 50.3159 16.8005 50.4937 16.4806C50.6714 16.1518 50.7603 15.7608 50.7603 15.3076ZM64.4237 12.5749C64.4237 13.0726 64.3038 13.5391 64.0638 13.9746C63.8328 14.41 63.464 14.7611 62.9574 15.0277C62.4598 15.2943 61.8288 15.4276 61.0646 15.4276H59.505V19H57.6388V9.69566H61.0646C61.7844 9.69566 62.3976 9.82007 62.9041 10.0689C63.4106 10.3177 63.7883 10.6599 64.0372 11.0953C64.2949 11.5308 64.4237 12.024 64.4237 12.5749ZM60.9846 13.9213C61.5 13.9213 61.8821 13.8057 62.131 13.5747C62.3798 13.3347 62.5042 13.0015 62.5042 12.5749C62.5042 11.6685 61.9977 11.2153 60.9846 11.2153H59.505V13.9213H60.9846ZM67.6149 12.7616C67.8548 12.3705 68.1659 12.064 68.548 11.8418C68.939 11.6196 69.3834 11.5085 69.881 11.5085V13.468H69.3878C68.8013 13.468 68.3569 13.6058 68.0548 13.8813C67.7615 14.1568 67.6149 14.6366 67.6149 15.3209V19H65.7487V11.6152H67.6149V12.7616ZM72.0844 10.7354C71.7556 10.7354 71.4801 10.6332 71.258 10.4288C71.0447 10.2155 70.938 9.95337 70.938 9.64234C70.938 9.33131 71.0447 9.07359 71.258 8.8692C71.4801 8.65592 71.7556 8.54928 72.0844 8.54928C72.4132 8.54928 72.6843 8.65592 72.8975 8.8692C73.1197 9.07359 73.2308 9.33131 73.2308 9.64234C73.2308 9.95337 73.1197 10.2155 72.8975 10.4288C72.6843 10.6332 72.4132 10.7354 72.0844 10.7354ZM73.0042 11.6152V19H71.138V11.6152H73.0042ZM78.1272 19.12C77.4162 19.12 76.7764 18.9645 76.2077 18.6534C75.6389 18.3335 75.1901 17.8847 74.8613 17.3071C74.5414 16.7295 74.3814 16.063 74.3814 15.3076C74.3814 14.5522 74.5458 13.8857 74.8747 13.3081C75.2123 12.7305 75.67 12.2861 76.2476 11.9751C76.8253 11.6552 77.4696 11.4952 78.1805 11.4952C78.8914 11.4952 79.5357 11.6552 80.1133 11.9751C80.691 12.2861 81.1442 12.7305 81.473 13.3081C81.8107 13.8857 81.9795 14.5522 81.9795 15.3076C81.9795 16.063 81.8063 16.7295 81.4597 17.3071C81.122 17.8847 80.6599 18.3335 80.0734 18.6534C79.4957 18.9645 78.847 19.12 78.1272 19.12ZM78.1272 17.4937C78.4649 17.4937 78.7803 17.4137 79.0736 17.2538C79.3757 17.0849 79.6157 16.8361 79.7934 16.5073C79.9712 16.1785 80.06 15.7786 80.06 15.3076C80.06 14.6055 79.8734 14.0679 79.5002 13.6947C79.1358 13.3125 78.687 13.1215 78.1538 13.1215C77.6206 13.1215 77.1719 13.3125 76.8075 13.6947C76.452 14.0679 76.2743 14.6055 76.2743 15.3076C76.2743 16.0096 76.4476 16.5517 76.7942 16.9338C77.1496 17.3071 77.594 17.4937 78.1272 17.4937ZM85.2147 12.7616C85.4546 12.3705 85.7656 12.064 86.1478 11.8418C86.5388 11.6196 86.9831 11.5085 87.4808 11.5085V13.468H86.9876C86.401 13.468 85.9567 13.6058 85.6546 13.8813C85.3613 14.1568 85.2147 14.6366 85.2147 15.3209V19H83.3485V11.6152H85.2147V12.7616ZM89.6842 10.7354C89.3554 10.7354 89.0799 10.6332 88.8577 10.4288C88.6444 10.2155 88.5378 9.95337 88.5378 9.64234C88.5378 9.33131 88.6444 9.07359 88.8577 8.8692C89.0799 8.65592 89.3554 8.54928 89.6842 8.54928C90.013 8.54928 90.284 8.65592 90.4973 8.8692C90.7195 9.07359 90.8306 9.33131 90.8306 9.64234C90.8306 9.95337 90.7195 10.2155 90.4973 10.4288C90.284 10.6332 90.013 10.7354 89.6842 10.7354ZM90.6039 11.6152V19H88.7377V11.6152H90.6039ZM91.9679 15.2809C91.9679 14.5344 92.1145 13.8724 92.4078 13.2948C92.7099 12.7171 93.1187 12.2728 93.6341 11.9618C94.1496 11.6507 94.7227 11.4952 95.3537 11.4952C95.8336 11.4952 96.2912 11.6018 96.7267 11.8151C97.1621 12.0195 97.5087 12.295 97.7664 12.6416V9.1358H99.6593V19H97.7664V17.9069C97.5354 18.2713 97.211 18.5646 96.7933 18.7867C96.3757 19.0089 95.8913 19.12 95.3404 19.12C94.7183 19.12 94.1496 18.96 93.6341 18.6401C93.1187 18.3202 92.7099 17.8714 92.4078 17.2938C92.1145 16.7072 91.9679 16.0363 91.9679 15.2809ZM97.7798 15.3076C97.7798 14.8544 97.6909 14.4678 97.5132 14.1479C97.3354 13.8191 97.0955 13.5702 96.7933 13.4014C96.4912 13.2237 96.1668 13.1348 95.8202 13.1348C95.4737 13.1348 95.1537 13.2192 94.8605 13.3881C94.5672 13.5569 94.3273 13.8057 94.1407 14.1345C93.9629 14.4545 93.8741 14.8366 93.8741 15.2809C93.8741 15.7253 93.9629 16.1163 94.1407 16.454C94.3273 16.7828 94.5672 17.036 94.8605 17.2138C95.1626 17.3915 95.4826 17.4804 95.8202 17.4804C96.1668 17.4804 96.4912 17.396 96.7933 17.2271C97.0955 17.0494 97.3354 16.8005 97.5132 16.4806C97.6909 16.1518 97.7798 15.7608 97.7798 15.3076ZM101.002 15.2809C101.002 14.5344 101.149 13.8724 101.442 13.2948C101.744 12.7171 102.148 12.2728 102.655 11.9618C103.17 11.6507 103.744 11.4952 104.375 11.4952C104.926 11.4952 105.405 11.6063 105.814 11.8285C106.232 12.0506 106.565 12.3306 106.814 12.6682V11.6152H108.693V19H106.814V17.9203C106.574 18.2668 106.241 18.5557 105.814 18.7867C105.397 19.0089 104.912 19.12 104.361 19.12C103.739 19.12 103.17 18.96 102.655 18.6401C102.148 18.3202 101.744 17.8714 101.442 17.2938C101.149 16.7072 101.002 16.0363 101.002 15.2809ZM106.814 15.3076C106.814 14.8544 106.725 14.4678 106.547 14.1479C106.37 13.8191 106.13 13.5702 105.828 13.4014C105.525 13.2237 105.201 13.1348 104.854 13.1348C104.508 13.1348 104.188 13.2192 103.895 13.3881C103.601 13.5569 103.361 13.8057 103.175 14.1345C102.997 14.4545 102.908 14.8366 102.908 15.2809C102.908 15.7253 102.997 16.1163 103.175 16.454C103.361 16.7828 103.601 17.036 103.895 17.2138C104.197 17.3915 104.517 17.4804 104.854 17.4804C105.201 17.4804 105.525 17.396 105.828 17.2271C106.13 17.0494 106.37 16.8005 106.547 16.4806C106.725 16.1518 106.814 15.7608 106.814 15.3076ZM110.036 15.2809C110.036 14.5344 110.183 13.8724 110.476 13.2948C110.778 12.7171 111.187 12.2728 111.703 11.9618C112.218 11.6507 112.791 11.4952 113.422 11.4952C113.902 11.4952 114.36 11.6018 114.795 11.8151C115.231 12.0195 115.577 12.295 115.835 12.6416V9.1358H117.728V19H115.835V17.9069C115.604 18.2713 115.279 18.5646 114.862 18.7867C114.444 19.0089 113.96 19.12 113.409 19.12C112.787 19.12 112.218 18.96 111.703 18.6401C111.187 18.3202 110.778 17.8714 110.476 17.2938C110.183 16.7072 110.036 16.0363 110.036 15.2809ZM115.848 15.3076C115.848 14.8544 115.759 14.4678 115.582 14.1479C115.404 13.8191 115.164 13.5702 114.862 13.4014C114.56 13.2237 114.235 13.1348 113.889 13.1348C113.542 13.1348 113.222 13.2192 112.929 13.3881C112.636 13.5569 112.396 13.8057 112.209 14.1345C112.031 14.4545 111.942 14.8366 111.942 15.2809C111.942 15.7253 112.031 16.1163 112.209 16.454C112.396 16.7828 112.636 17.036 112.929 17.2138C113.231 17.3915 113.551 17.4804 113.889 17.4804C114.235 17.4804 114.56 17.396 114.862 17.2271C115.164 17.0494 115.404 16.8005 115.582 16.4806C115.759 16.1518 115.848 15.7608 115.848 15.3076ZM126.415 15.1476C126.415 15.4142 126.398 15.6542 126.362 15.8674H120.963C121.008 16.4006 121.194 16.8183 121.523 17.1205C121.852 17.4226 122.256 17.5737 122.736 17.5737C123.429 17.5737 123.923 17.276 124.216 16.6806H126.229C126.015 17.3915 125.607 17.978 125.002 18.4401C124.398 18.8934 123.656 19.12 122.776 19.12C122.065 19.12 121.425 18.9645 120.857 18.6534C120.297 18.3335 119.857 17.8847 119.537 17.3071C119.226 16.7295 119.07 16.063 119.07 15.3076C119.07 14.5433 119.226 13.8724 119.537 13.2948C119.848 12.7171 120.284 12.2728 120.843 11.9618C121.403 11.6507 122.048 11.4952 122.776 11.4952C123.478 11.4952 124.105 11.6463 124.656 11.9484C125.216 12.2506 125.647 12.6816 125.949 13.2414C126.26 13.7924 126.415 14.4278 126.415 15.1476ZM124.482 14.6144C124.474 14.1345 124.3 13.7524 123.963 13.468C123.625 13.1748 123.212 13.0282 122.723 13.0282C122.261 13.0282 121.87 13.1703 121.55 13.4547C121.239 13.7302 121.048 14.1168 120.977 14.6144H124.482Z" fill="#096343"/>
</svg>
