<svg width="148" height="28" viewBox="0 0 148 28" fill="none" xmlns="http://www.w3.org/2000/svg">
<rect width="148" height="28" rx="4" fill="#F5EB88"/>
<path d="M27.0639 9.69566V19H25.1977V12.9482L22.705 19H21.292L18.786 12.9482V19H16.9198V9.69566H19.0392L21.9985 16.6139L24.9578 9.69566H27.0639ZM35.7739 15.1476C35.7739 15.4142 35.7561 15.6542 35.7206 15.8674H30.3219C30.3664 16.4006 30.553 16.8183 30.8818 17.1205C31.2106 17.4226 31.6149 17.5737 32.0948 17.5737C32.788 17.5737 33.2812 17.276 33.5745 16.6806H35.5873C35.374 17.3915 34.9652 17.978 34.3609 18.4401C33.7566 18.8934 33.0146 19.12 32.1348 19.12C31.4239 19.12 30.784 18.9645 30.2153 18.6534C29.6554 18.3335 29.2155 17.8847 28.8956 17.3071C28.5846 16.7295 28.4291 16.063 28.4291 15.3076C28.4291 14.5433 28.5846 13.8724 28.8956 13.2948C29.2067 12.7171 29.6421 12.2728 30.202 11.9618C30.7618 11.6507 31.4061 11.4952 32.1348 11.4952C32.8369 11.4952 33.4634 11.6463 34.0143 11.9484C34.5742 12.2506 35.0052 12.6816 35.3074 13.2414C35.6184 13.7924 35.7739 14.4278 35.7739 15.1476ZM33.8411 14.6144C33.8322 14.1345 33.6589 13.7524 33.3212 13.468C32.9835 13.1748 32.5703 13.0282 32.0815 13.0282C31.6194 13.0282 31.2284 13.1703 30.9085 13.4547C30.5974 13.7302 30.4064 14.1168 30.3353 14.6144H33.8411ZM33.5611 9.669L30.4952 11.0686V9.73565L33.5611 8.14938V9.669ZM36.6562 15.2809C36.6562 14.5344 36.8028 13.8724 37.0961 13.2948C37.3982 12.7171 37.807 12.2728 38.3224 11.9618C38.8379 11.6507 39.4111 11.4952 40.042 11.4952C40.5219 11.4952 40.9796 11.6018 41.415 11.8151C41.8504 12.0195 42.197 12.295 42.4547 12.6416V9.1358H44.3476V19H42.4547V17.9069C42.2237 18.2713 41.8993 18.5646 41.4816 18.7867C41.064 19.0089 40.5797 19.12 40.0287 19.12C39.4066 19.12 38.8379 18.96 38.3224 18.6401C37.807 18.3202 37.3982 17.8714 37.0961 17.2938C36.8028 16.7072 36.6562 16.0363 36.6562 15.2809ZM42.4681 15.3076C42.4681 14.8544 42.3792 14.4678 42.2015 14.1479C42.0237 13.8191 41.7838 13.5702 41.4816 13.4014C41.1795 13.2237 40.8551 13.1348 40.5086 13.1348C40.162 13.1348 39.8421 13.2192 39.5488 13.3881C39.2555 13.5569 39.0156 13.8057 38.829 14.1345C38.6512 14.4545 38.5624 14.8366 38.5624 15.2809C38.5624 15.7253 38.6512 16.1163 38.829 16.454C39.0156 16.7828 39.2555 17.036 39.5488 17.2138C39.8509 17.3915 40.1709 17.4804 40.5086 17.4804C40.8551 17.4804 41.1795 17.396 41.4816 17.2271C41.7838 17.0494 42.0237 16.8005 42.2015 16.4806C42.3792 16.1518 42.4681 15.7608 42.4681 15.3076ZM47.1167 10.7354C46.7879 10.7354 46.5124 10.6332 46.2902 10.4288C46.077 10.2155 45.9703 9.95337 45.9703 9.64234C45.9703 9.33131 46.077 9.07359 46.2902 8.8692C46.5124 8.65592 46.7879 8.54928 47.1167 8.54928C47.4455 8.54928 47.7165 8.65592 47.9298 8.8692C48.152 9.07359 48.2631 9.33131 48.2631 9.64234C48.2631 9.95337 48.152 10.2155 47.9298 10.4288C47.7165 10.6332 47.4455 10.7354 47.1167 10.7354ZM48.0365 11.6152V19H46.1703V11.6152H48.0365ZM49.4004 15.2809C49.4004 14.5344 49.547 13.8724 49.8403 13.2948C50.1424 12.7171 50.5468 12.2728 51.0533 11.9618C51.5687 11.6507 52.1419 11.4952 52.7729 11.4952C53.3239 11.4952 53.8037 11.6063 54.2125 11.8285C54.6302 12.0506 54.9634 12.3306 55.2123 12.6682V11.6152H57.0918V19H55.2123V17.9203C54.9723 18.2668 54.6391 18.5557 54.2125 18.7867C53.7949 19.0089 53.3105 19.12 52.7596 19.12C52.1375 19.12 51.5687 18.96 51.0533 18.6401C50.5468 18.3202 50.1424 17.8714 49.8403 17.2938C49.547 16.7072 49.4004 16.0363 49.4004 15.2809ZM55.2123 15.3076C55.2123 14.8544 55.1234 14.4678 54.9457 14.1479C54.7679 13.8191 54.528 13.5702 54.2259 13.4014C53.9237 13.2237 53.5993 13.1348 53.2528 13.1348C52.9062 13.1348 52.5863 13.2192 52.293 13.3881C51.9997 13.5569 51.7598 13.8057 51.5732 14.1345C51.3955 14.4545 51.3066 14.8366 51.3066 15.2809C51.3066 15.7253 51.3955 16.1163 51.5732 16.454C51.7598 16.7828 51.9997 17.036 52.293 17.2138C52.5952 17.3915 52.9151 17.4804 53.2528 17.4804C53.5993 17.4804 53.9237 17.396 54.2259 17.2271C54.528 17.0494 54.7679 16.8005 54.9457 16.4806C55.1234 16.1518 55.2123 15.7608 55.2123 15.3076ZM68.8757 12.5749C68.8757 13.0726 68.7558 13.5391 68.5158 13.9746C68.2848 14.41 67.916 14.7611 67.4094 15.0277C66.9118 15.2943 66.2808 15.4276 65.5166 15.4276H63.957V19H62.0908V9.69566H65.5166C66.2364 9.69566 66.8496 9.82007 67.3561 10.0689C67.8627 10.3177 68.2403 10.6599 68.4892 11.0953C68.7469 11.5308 68.8757 12.024 68.8757 12.5749ZM65.4366 13.9213C65.952 13.9213 66.3341 13.8057 66.583 13.5747C66.8318 13.3347 66.9562 13.0015 66.9562 12.5749C66.9562 11.6685 66.4497 11.2153 65.4366 11.2153H63.957V13.9213H65.4366ZM72.0669 12.7616C72.3069 12.3705 72.6179 12.064 73 11.8418C73.391 11.6196 73.8354 11.5085 74.333 11.5085V13.468H73.8398C73.2533 13.468 72.809 13.6058 72.5068 13.8813C72.2135 14.1568 72.0669 14.6366 72.0669 15.3209V19H70.2007V11.6152H72.0669V12.7616ZM76.5364 10.7354C76.2076 10.7354 75.9321 10.6332 75.71 10.4288C75.4967 10.2155 75.39 9.95337 75.39 9.64234C75.39 9.33131 75.4967 9.07359 75.71 8.8692C75.9321 8.65592 76.2076 8.54928 76.5364 8.54928C76.8652 8.54928 77.1363 8.65592 77.3496 8.8692C77.5717 9.07359 77.6828 9.33131 77.6828 9.64234C77.6828 9.95337 77.5717 10.2155 77.3496 10.4288C77.1363 10.6332 76.8652 10.7354 76.5364 10.7354ZM77.4562 11.6152V19H75.59V11.6152H77.4562ZM82.5792 19.12C81.8683 19.12 81.2284 18.9645 80.6597 18.6534C80.0909 18.3335 79.6421 17.8847 79.3133 17.3071C78.9934 16.7295 78.8335 16.063 78.8335 15.3076C78.8335 14.5522 78.9979 13.8857 79.3267 13.3081C79.6644 12.7305 80.122 12.2861 80.6997 11.9751C81.2773 11.6552 81.9216 11.4952 82.6325 11.4952C83.3434 11.4952 83.9877 11.6552 84.5654 11.9751C85.143 12.2861 85.5962 12.7305 85.925 13.3081C86.2627 13.8857 86.4316 14.5522 86.4316 15.3076C86.4316 16.063 86.2583 16.7295 85.9117 17.3071C85.574 17.8847 85.1119 18.3335 84.5254 18.6534C83.9477 18.9645 83.299 19.12 82.5792 19.12ZM82.5792 17.4937C82.9169 17.4937 83.2324 17.4137 83.5256 17.2538C83.8278 17.0849 84.0677 16.8361 84.2454 16.5073C84.4232 16.1785 84.512 15.7786 84.512 15.3076C84.512 14.6055 84.3254 14.0679 83.9522 13.6947C83.5878 13.3125 83.139 13.1215 82.6058 13.1215C82.0726 13.1215 81.6239 13.3125 81.2595 13.6947C80.904 14.0679 80.7263 14.6055 80.7263 15.3076C80.7263 16.0096 80.8996 16.5517 81.2462 16.9338C81.6017 17.3071 82.046 17.4937 82.5792 17.4937ZM89.6667 12.7616C89.9066 12.3705 90.2177 12.064 90.5998 11.8418C90.9908 11.6196 91.4351 11.5085 91.9328 11.5085V13.468H91.4396C90.8531 13.468 90.4087 13.6058 90.1066 13.8813C89.8133 14.1568 89.6667 14.6366 89.6667 15.3209V19H87.8005V11.6152H89.6667V12.7616ZM94.1362 10.7354C93.8074 10.7354 93.5319 10.6332 93.3097 10.4288C93.0964 10.2155 92.9898 9.95337 92.9898 9.64234C92.9898 9.33131 93.0964 9.07359 93.3097 8.8692C93.5319 8.65592 93.8074 8.54928 94.1362 8.54928C94.465 8.54928 94.736 8.65592 94.9493 8.8692C95.1715 9.07359 95.2826 9.33131 95.2826 9.64234C95.2826 9.95337 95.1715 10.2155 94.9493 10.4288C94.736 10.6332 94.465 10.7354 94.1362 10.7354ZM95.056 11.6152V19H93.1898V11.6152H95.056ZM96.4199 15.2809C96.4199 14.5344 96.5665 13.8724 96.8598 13.2948C97.1619 12.7171 97.5707 12.2728 98.0861 11.9618C98.6016 11.6507 99.1748 11.4952 99.8057 11.4952C100.286 11.4952 100.743 11.6018 101.179 11.8151C101.614 12.0195 101.961 12.295 102.218 12.6416V9.1358H104.111V19H102.218V17.9069C101.987 18.2713 101.663 18.5646 101.245 18.7867C100.828 19.0089 100.343 19.12 99.7924 19.12C99.1703 19.12 98.6016 18.96 98.0861 18.6401C97.5707 18.3202 97.1619 17.8714 96.8598 17.2938C96.5665 16.7072 96.4199 16.0363 96.4199 15.2809ZM102.232 15.3076C102.232 14.8544 102.143 14.4678 101.965 14.1479C101.787 13.8191 101.547 13.5702 101.245 13.4014C100.943 13.2237 100.619 13.1348 100.272 13.1348C99.9257 13.1348 99.6058 13.2192 99.3125 13.3881C99.0192 13.5569 98.7793 13.8057 98.5927 14.1345C98.4149 14.4545 98.3261 14.8366 98.3261 15.2809C98.3261 15.7253 98.4149 16.1163 98.5927 16.454C98.7793 16.7828 99.0192 17.036 99.3125 17.2138C99.6146 17.3915 99.9346 17.4804 100.272 17.4804C100.619 17.4804 100.943 17.396 101.245 17.2271C101.547 17.0494 101.787 16.8005 101.965 16.4806C102.143 16.1518 102.232 15.7608 102.232 15.3076ZM105.454 15.2809C105.454 14.5344 105.601 13.8724 105.894 13.2948C106.196 12.7171 106.6 12.2728 107.107 11.9618C107.622 11.6507 108.196 11.4952 108.827 11.4952C109.378 11.4952 109.857 11.6063 110.266 11.8285C110.684 12.0506 111.017 12.3306 111.266 12.6682V11.6152H113.145V19H111.266V17.9203C111.026 18.2668 110.693 18.5557 110.266 18.7867C109.849 19.0089 109.364 19.12 108.813 19.12C108.191 19.12 107.622 18.96 107.107 18.6401C106.6 18.3202 106.196 17.8714 105.894 17.2938C105.601 16.7072 105.454 16.0363 105.454 15.2809ZM111.266 15.3076C111.266 14.8544 111.177 14.4678 110.999 14.1479C110.822 13.8191 110.582 13.5702 110.28 13.4014C109.977 13.2237 109.653 13.1348 109.306 13.1348C108.96 13.1348 108.64 13.2192 108.347 13.3881C108.053 13.5569 107.813 13.8057 107.627 14.1345C107.449 14.4545 107.36 14.8366 107.36 15.2809C107.36 15.7253 107.449 16.1163 107.627 16.454C107.813 16.7828 108.053 17.036 108.347 17.2138C108.649 17.3915 108.969 17.4804 109.306 17.4804C109.653 17.4804 109.977 17.396 110.28 17.2271C110.582 17.0494 110.822 16.8005 110.999 16.4806C111.177 16.1518 111.266 15.7608 111.266 15.3076ZM114.488 15.2809C114.488 14.5344 114.635 13.8724 114.928 13.2948C115.23 12.7171 115.639 12.2728 116.155 11.9618C116.67 11.6507 117.243 11.4952 117.874 11.4952C118.354 11.4952 118.812 11.6018 119.247 11.8151C119.683 12.0195 120.029 12.295 120.287 12.6416V9.1358H122.18V19H120.287V17.9069C120.056 18.2713 119.731 18.5646 119.314 18.7867C118.896 19.0089 118.412 19.12 117.861 19.12C117.239 19.12 116.67 18.96 116.155 18.6401C115.639 18.3202 115.23 17.8714 114.928 17.2938C114.635 16.7072 114.488 16.0363 114.488 15.2809ZM120.3 15.3076C120.3 14.8544 120.211 14.4678 120.034 14.1479C119.856 13.8191 119.616 13.5702 119.314 13.4014C119.012 13.2237 118.687 13.1348 118.341 13.1348C117.994 13.1348 117.674 13.2192 117.381 13.3881C117.088 13.5569 116.848 13.8057 116.661 14.1345C116.483 14.4545 116.394 14.8366 116.394 15.2809C116.394 15.7253 116.483 16.1163 116.661 16.454C116.848 16.7828 117.088 17.036 117.381 17.2138C117.683 17.3915 118.003 17.4804 118.341 17.4804C118.687 17.4804 119.012 17.396 119.314 17.2271C119.616 17.0494 119.856 16.8005 120.034 16.4806C120.211 16.1518 120.3 15.7608 120.3 15.3076ZM130.867 15.1476C130.867 15.4142 130.85 15.6542 130.814 15.8674H125.415C125.46 16.4006 125.646 16.8183 125.975 17.1205C126.304 17.4226 126.708 17.5737 127.188 17.5737C127.881 17.5737 128.375 17.276 128.668 16.6806H130.681C130.467 17.3915 130.059 17.978 129.454 18.4401C128.85 18.8934 128.108 19.12 127.228 19.12C126.517 19.12 125.877 18.9645 125.309 18.6534C124.749 18.3335 124.309 17.8847 123.989 17.3071C123.678 16.7295 123.522 16.063 123.522 15.3076C123.522 14.5433 123.678 13.8724 123.989 13.2948C124.3 12.7171 124.736 12.2728 125.295 11.9618C125.855 11.6507 126.5 11.4952 127.228 11.4952C127.93 11.4952 128.557 11.6463 129.108 11.9484C129.668 12.2506 130.099 12.6816 130.401 13.2414C130.712 13.7924 130.867 14.4278 130.867 15.1476ZM128.934 14.6144C128.926 14.1345 128.752 13.7524 128.415 13.468C128.077 13.1748 127.664 13.0282 127.175 13.0282C126.713 13.0282 126.322 13.1703 126.002 13.4547C125.691 13.7302 125.5 14.1168 125.429 14.6144H128.934Z" fill="#653408"/>
</svg>
