<svg width="169" height="28" viewBox="0 0 169 28" fill="none" xmlns="http://www.w3.org/2000/svg">
<rect width="169" height="28" rx="4" fill="#F27F77"/>
<path d="M22.625 17.2271H18.9193L18.3061 19H16.3466L19.6924 9.68233H21.8652L25.211 19H23.2382L22.625 17.2271ZM22.1185 15.7341L20.7721 11.8418L19.4258 15.7341H22.1185ZM28.3279 9.1358V19H26.4617V9.1358H28.3279ZM32.3445 13.1481V16.7206C32.3445 16.9694 32.4022 17.1516 32.5177 17.2671C32.6422 17.3737 32.8466 17.4271 33.1309 17.4271H33.9974V19H32.8243C31.2514 19 30.4649 18.2357 30.4649 16.7072V13.1481H29.5851V11.6152H30.4649V9.78897H32.3445V11.6152H33.9974V13.1481H32.3445ZM37.2858 11.6152V19H35.4196V11.6152H37.2858ZM37.8057 9.69566L34.7398 11.0953V9.76231L37.8057 8.17604V9.69566ZM42.0318 19.12C41.4275 19.12 40.8854 19.0133 40.4056 18.8C39.9257 18.5779 39.5436 18.2802 39.2592 17.9069C38.9837 17.5337 38.8326 17.1205 38.806 16.6672H40.6855C40.721 16.9516 40.8588 17.1871 41.0987 17.3737C41.3475 17.5604 41.6541 17.6537 42.0185 17.6537C42.374 17.6537 42.6494 17.5826 42.845 17.4404C43.0493 17.2982 43.1515 17.116 43.1515 16.8939C43.1515 16.6539 43.0271 16.4762 42.7783 16.3607C42.5384 16.2362 42.1518 16.1029 41.6186 15.9608C41.0676 15.8275 40.6144 15.6897 40.2589 15.5475C39.9124 15.4053 39.6102 15.1876 39.3525 14.8944C39.1037 14.6011 38.9793 14.2056 38.9793 13.708C38.9793 13.2992 39.0948 12.926 39.3258 12.5883C39.5658 12.2506 39.9035 11.984 40.3389 11.7885C40.7832 11.593 41.3031 11.4952 41.8985 11.4952C42.7783 11.4952 43.4803 11.7174 44.0047 12.1617C44.529 12.5972 44.8178 13.1881 44.8711 13.9346H43.0849C43.0582 13.6413 42.9338 13.4103 42.7117 13.2414C42.4984 13.0637 42.2096 12.9748 41.8452 12.9748C41.5075 12.9748 41.2454 13.037 41.0587 13.1615C40.881 13.2859 40.7921 13.4592 40.7921 13.6813C40.7921 13.9302 40.9165 14.1212 41.1654 14.2545C41.4142 14.3789 41.8008 14.5078 42.3251 14.6411C42.8583 14.7744 43.2982 14.9121 43.6448 15.0543C43.9913 15.1965 44.289 15.4187 44.5379 15.7208C44.7956 16.0141 44.9289 16.4051 44.9378 16.8939C44.9378 17.3204 44.8178 17.7025 44.5779 18.0402C44.3468 18.3779 44.0091 18.6445 43.5648 18.84C43.1293 19.0267 42.6183 19.12 42.0318 19.12ZM49.2956 19.12C48.6913 19.12 48.1493 19.0133 47.6694 18.8C47.1895 18.5779 46.8074 18.2802 46.523 17.9069C46.2475 17.5337 46.0964 17.1205 46.0698 16.6672H47.9493C47.9848 16.9516 48.1226 17.1871 48.3625 17.3737C48.6114 17.5604 48.9179 17.6537 49.2823 17.6537C49.6378 17.6537 49.9133 17.5826 50.1088 17.4404C50.3132 17.2982 50.4154 17.116 50.4154 16.8939C50.4154 16.6539 50.2909 16.4762 50.0421 16.3607C49.8022 16.2362 49.4156 16.1029 48.8824 15.9608C48.3314 15.8275 47.8782 15.6897 47.5227 15.5475C47.1762 15.4053 46.874 15.1876 46.6163 14.8944C46.3675 14.6011 46.2431 14.2056 46.2431 13.708C46.2431 13.2992 46.3586 12.926 46.5896 12.5883C46.8296 12.2506 47.1673 11.984 47.6027 11.7885C48.0471 11.593 48.5669 11.4952 49.1623 11.4952C50.0421 11.4952 50.7442 11.7174 51.2685 12.1617C51.7928 12.5972 52.0816 13.1881 52.1349 13.9346H50.3487C50.322 13.6413 50.1976 13.4103 49.9755 13.2414C49.7622 13.0637 49.4734 12.9748 49.109 12.9748C48.7713 12.9748 48.5092 13.037 48.3225 13.1615C48.1448 13.2859 48.0559 13.4592 48.0559 13.6813C48.0559 13.9302 48.1804 14.1212 48.4292 14.2545C48.678 14.3789 49.0646 14.5078 49.5889 14.6411C50.1221 14.7744 50.562 14.9121 50.9086 15.0543C51.2551 15.1965 51.5528 15.4187 51.8017 15.7208C52.0594 16.0141 52.1927 16.4051 52.2016 16.8939C52.2016 17.3204 52.0816 17.7025 51.8417 18.0402C51.6106 18.3779 51.2729 18.6445 50.8286 18.84C50.3931 19.0267 49.8822 19.12 49.2956 19.12ZM54.6799 10.7354C54.3511 10.7354 54.0756 10.6332 53.8534 10.4288C53.6402 10.2155 53.5335 9.95337 53.5335 9.64234C53.5335 9.33131 53.6402 9.07359 53.8534 8.8692C54.0756 8.65592 54.3511 8.54928 54.6799 8.54928C55.0087 8.54928 55.2798 8.65592 55.493 8.8692C55.7152 9.07359 55.8263 9.33131 55.8263 9.64234C55.8263 9.95337 55.7152 10.2155 55.493 10.4288C55.2798 10.6332 55.0087 10.7354 54.6799 10.7354ZM55.5997 11.6152V19H53.7335V11.6152H55.5997ZM66.6145 11.5085C67.521 11.5085 68.2497 11.7885 68.8007 12.3483C69.3605 12.8993 69.6404 13.6724 69.6404 14.6677V19H67.7742V14.921C67.7742 14.3434 67.6276 13.9035 67.3344 13.6013C67.0411 13.2903 66.6412 13.1348 66.1346 13.1348C65.6281 13.1348 65.2238 13.2903 64.9216 13.6013C64.6284 13.9035 64.4817 14.3434 64.4817 14.921V19H62.6155V14.921C62.6155 14.3434 62.4689 13.9035 62.1756 13.6013C61.8824 13.2903 61.4825 13.1348 60.9759 13.1348C60.4605 13.1348 60.0517 13.2903 59.7496 13.6013C59.4563 13.9035 59.3097 14.3434 59.3097 14.921V19H57.4435V11.6152H59.3097V12.5083C59.5496 12.1973 59.8562 11.9529 60.2295 11.7751C60.6116 11.5974 61.0293 11.5085 61.4825 11.5085C62.0601 11.5085 62.5755 11.633 63.0288 11.8818C63.482 12.1217 63.833 12.4683 64.0818 12.9215C64.3218 12.495 64.6684 12.1528 65.1216 11.8951C65.5837 11.6374 66.0813 11.5085 66.6145 11.5085ZM70.9315 15.2809C70.9315 14.5344 71.0781 13.8724 71.3714 13.2948C71.6735 12.7171 72.0779 12.2728 72.5844 11.9618C73.0998 11.6507 73.673 11.4952 74.304 11.4952C74.8549 11.4952 75.3348 11.6063 75.7436 11.8285C76.1613 12.0506 76.4945 12.3306 76.7434 12.6682V11.6152H78.6229V19H76.7434V17.9203C76.5034 18.2668 76.1702 18.5557 75.7436 18.7867C75.3259 19.0089 74.8416 19.12 74.2906 19.12C73.6686 19.12 73.0998 18.96 72.5844 18.6401C72.0779 18.3202 71.6735 17.8714 71.3714 17.2938C71.0781 16.7072 70.9315 16.0363 70.9315 15.2809ZM76.7434 15.3076C76.7434 14.8544 76.6545 14.4678 76.4768 14.1479C76.299 13.8191 76.0591 13.5702 75.7569 13.4014C75.4548 13.2237 75.1304 13.1348 74.7838 13.1348C74.4373 13.1348 74.1173 13.2192 73.8241 13.3881C73.5308 13.5569 73.2909 13.8057 73.1043 14.1345C72.9265 14.4545 72.8377 14.8366 72.8377 15.2809C72.8377 15.7253 72.9265 16.1163 73.1043 16.454C73.2909 16.7828 73.5308 17.036 73.8241 17.2138C74.1262 17.3915 74.4461 17.4804 74.7838 17.4804C75.1304 17.4804 75.4548 17.396 75.7569 17.2271C76.0591 17.0494 76.299 16.8005 76.4768 16.4806C76.6545 16.1518 76.7434 15.7608 76.7434 15.3076ZM90.4068 12.5749C90.4068 13.0726 90.2868 13.5391 90.0469 13.9746C89.8158 14.41 89.4471 14.7611 88.9405 15.0277C88.4429 15.2943 87.8119 15.4276 87.0477 15.4276H85.488V19H83.6218V9.69566H87.0477C87.7675 9.69566 88.3807 9.82007 88.8872 10.0689C89.3937 10.3177 89.7714 10.6599 90.0202 11.0953C90.278 11.5308 90.4068 12.024 90.4068 12.5749ZM86.9677 13.9213C87.4831 13.9213 87.8652 13.8057 88.1141 13.5747C88.3629 13.3347 88.4873 13.0015 88.4873 12.5749C88.4873 11.6685 87.9808 11.2153 86.9677 11.2153H85.488V13.9213H86.9677ZM93.598 12.7616C93.8379 12.3705 94.149 12.064 94.5311 11.8418C94.9221 11.6196 95.3664 11.5085 95.8641 11.5085V13.468H95.3709C94.7844 13.468 94.34 13.6058 94.0379 13.8813C93.7446 14.1568 93.598 14.6366 93.598 15.3209V19H91.7318V11.6152H93.598V12.7616ZM98.0675 10.7354C97.7387 10.7354 97.4632 10.6332 97.241 10.4288C97.0278 10.2155 96.9211 9.95337 96.9211 9.64234C96.9211 9.33131 97.0278 9.07359 97.241 8.8692C97.4632 8.65592 97.7387 8.54928 98.0675 8.54928C98.3963 8.54928 98.6674 8.65592 98.8806 8.8692C99.1028 9.07359 99.2139 9.33131 99.2139 9.64234C99.2139 9.95337 99.1028 10.2155 98.8806 10.4288C98.6674 10.6332 98.3963 10.7354 98.0675 10.7354ZM98.9873 11.6152V19H97.1211V11.6152H98.9873ZM104.11 19.12C103.399 19.12 102.759 18.9645 102.191 18.6534C101.622 18.3335 101.173 17.8847 100.844 17.3071C100.524 16.7295 100.365 16.063 100.365 15.3076C100.365 14.5522 100.529 13.8857 100.858 13.3081C101.195 12.7305 101.653 12.2861 102.231 11.9751C102.808 11.6552 103.453 11.4952 104.164 11.4952C104.875 11.4952 105.519 11.6552 106.096 11.9751C106.674 12.2861 107.127 12.7305 107.456 13.3081C107.794 13.8857 107.963 14.5522 107.963 15.3076C107.963 16.063 107.789 16.7295 107.443 17.3071C107.105 17.8847 106.643 18.3335 106.056 18.6534C105.479 18.9645 104.83 19.12 104.11 19.12ZM104.11 17.4937C104.448 17.4937 104.763 17.4137 105.057 17.2538C105.359 17.0849 105.599 16.8361 105.777 16.5073C105.954 16.1785 106.043 15.7786 106.043 15.3076C106.043 14.6055 105.856 14.0679 105.483 13.6947C105.119 13.3125 104.67 13.1215 104.137 13.1215C103.604 13.1215 103.155 13.3125 102.791 13.6947C102.435 14.0679 102.257 14.6055 102.257 15.3076C102.257 16.0096 102.431 16.5517 102.777 16.9338C103.133 17.3071 103.577 17.4937 104.11 17.4937ZM111.198 12.7616C111.438 12.3705 111.749 12.064 112.131 11.8418C112.522 11.6196 112.966 11.5085 113.464 11.5085V13.468H112.971C112.384 13.468 111.94 13.6058 111.638 13.8813C111.344 14.1568 111.198 14.6366 111.198 15.3209V19H109.332V11.6152H111.198V12.7616ZM115.667 10.7354C115.338 10.7354 115.063 10.6332 114.841 10.4288C114.628 10.2155 114.521 9.95337 114.521 9.64234C114.521 9.33131 114.628 9.07359 114.841 8.8692C115.063 8.65592 115.338 8.54928 115.667 8.54928C115.996 8.54928 116.267 8.65592 116.48 8.8692C116.703 9.07359 116.814 9.33131 116.814 9.64234C116.814 9.95337 116.703 10.2155 116.48 10.4288C116.267 10.6332 115.996 10.7354 115.667 10.7354ZM116.587 11.6152V19H114.721V11.6152H116.587ZM117.951 15.2809C117.951 14.5344 118.098 13.8724 118.391 13.2948C118.693 12.7171 119.102 12.2728 119.617 11.9618C120.133 11.6507 120.706 11.4952 121.337 11.4952C121.817 11.4952 122.274 11.6018 122.71 11.8151C123.145 12.0195 123.492 12.295 123.75 12.6416V9.1358H125.642V19H123.75V17.9069C123.518 18.2713 123.194 18.5646 122.776 18.7867C122.359 19.0089 121.874 19.12 121.323 19.12C120.701 19.12 120.133 18.96 119.617 18.6401C119.102 18.3202 118.693 17.8714 118.391 17.2938C118.098 16.7072 117.951 16.0363 117.951 15.2809ZM123.763 15.3076C123.763 14.8544 123.674 14.4678 123.496 14.1479C123.319 13.8191 123.079 13.5702 122.776 13.4014C122.474 13.2237 122.15 13.1348 121.803 13.1348C121.457 13.1348 121.137 13.2192 120.844 13.3881C120.55 13.5569 120.31 13.8057 120.124 14.1345C119.946 14.4545 119.857 14.8366 119.857 15.2809C119.857 15.7253 119.946 16.1163 120.124 16.454C120.31 16.7828 120.55 17.036 120.844 17.2138C121.146 17.3915 121.466 17.4804 121.803 17.4804C122.15 17.4804 122.474 17.396 122.776 17.2271C123.079 17.0494 123.319 16.8005 123.496 16.4806C123.674 16.1518 123.763 15.7608 123.763 15.3076ZM126.985 15.2809C126.985 14.5344 127.132 13.8724 127.425 13.2948C127.727 12.7171 128.132 12.2728 128.638 11.9618C129.154 11.6507 129.727 11.4952 130.358 11.4952C130.909 11.4952 131.389 11.6063 131.797 11.8285C132.215 12.0506 132.548 12.3306 132.797 12.6682V11.6152H134.677V19H132.797V17.9203C132.557 18.2668 132.224 18.5557 131.797 18.7867C131.38 19.0089 130.895 19.12 130.344 19.12C129.722 19.12 129.154 18.96 128.638 18.6401C128.132 18.3202 127.727 17.8714 127.425 17.2938C127.132 16.7072 126.985 16.0363 126.985 15.2809ZM132.797 15.3076C132.797 14.8544 132.708 14.4678 132.53 14.1479C132.353 13.8191 132.113 13.5702 131.811 13.4014C131.508 13.2237 131.184 13.1348 130.838 13.1348C130.491 13.1348 130.171 13.2192 129.878 13.3881C129.585 13.5569 129.345 13.8057 129.158 14.1345C128.98 14.4545 128.891 14.8366 128.891 15.2809C128.891 15.7253 128.98 16.1163 129.158 16.454C129.345 16.7828 129.585 17.036 129.878 17.2138C130.18 17.3915 130.5 17.4804 130.838 17.4804C131.184 17.4804 131.508 17.396 131.811 17.2271C132.113 17.0494 132.353 16.8005 132.53 16.4806C132.708 16.1518 132.797 15.7608 132.797 15.3076ZM136.019 15.2809C136.019 14.5344 136.166 13.8724 136.459 13.2948C136.761 12.7171 137.17 12.2728 137.686 11.9618C138.201 11.6507 138.774 11.4952 139.405 11.4952C139.885 11.4952 140.343 11.6018 140.778 11.8151C141.214 12.0195 141.56 12.295 141.818 12.6416V9.1358H143.711V19H141.818V17.9069C141.587 18.2713 141.262 18.5646 140.845 18.7867C140.427 19.0089 139.943 19.12 139.392 19.12C138.77 19.12 138.201 18.96 137.686 18.6401C137.17 18.3202 136.761 17.8714 136.459 17.2938C136.166 16.7072 136.019 16.0363 136.019 15.2809ZM141.831 15.3076C141.831 14.8544 141.742 14.4678 141.565 14.1479C141.387 13.8191 141.147 13.5702 140.845 13.4014C140.543 13.2237 140.218 13.1348 139.872 13.1348C139.525 13.1348 139.205 13.2192 138.912 13.3881C138.619 13.5569 138.379 13.8057 138.192 14.1345C138.014 14.4545 137.926 14.8366 137.926 15.2809C137.926 15.7253 138.014 16.1163 138.192 16.454C138.379 16.7828 138.619 17.036 138.912 17.2138C139.214 17.3915 139.534 17.4804 139.872 17.4804C140.218 17.4804 140.543 17.396 140.845 17.2271C141.147 17.0494 141.387 16.8005 141.565 16.4806C141.742 16.1518 141.831 15.7608 141.831 15.3076ZM152.398 15.1476C152.398 15.4142 152.381 15.6542 152.345 15.8674H146.946C146.991 16.4006 147.177 16.8183 147.506 17.1205C147.835 17.4226 148.239 17.5737 148.719 17.5737C149.412 17.5737 149.906 17.276 150.199 16.6806H152.212C151.998 17.3915 151.59 17.978 150.985 18.4401C150.381 18.8934 149.639 19.12 148.759 19.12C148.048 19.12 147.409 18.9645 146.84 18.6534C146.28 18.3335 145.84 17.8847 145.52 17.3071C145.209 16.7295 145.054 16.063 145.054 15.3076C145.054 14.5433 145.209 13.8724 145.52 13.2948C145.831 12.7171 146.267 12.2728 146.826 11.9618C147.386 11.6507 148.031 11.4952 148.759 11.4952C149.461 11.4952 150.088 11.6463 150.639 11.9484C151.199 12.2506 151.63 12.6816 151.932 13.2414C152.243 13.7924 152.398 14.4278 152.398 15.1476ZM150.466 14.6144C150.457 14.1345 150.283 13.7524 149.946 13.468C149.608 13.1748 149.195 13.0282 148.706 13.0282C148.244 13.0282 147.853 13.1703 147.533 13.4547C147.222 13.7302 147.031 14.1168 146.96 14.6144H150.466Z" fill="#5F0F0B"/>
</svg>
