<svg width="133" height="28" viewBox="0 0 133 28" fill="none" xmlns="http://www.w3.org/2000/svg">
<rect width="133" height="28" rx="4" fill="#FFA775"/>
<path d="M22.625 17.2271H18.9193L18.3061 19H16.3466L19.6924 9.68233H21.8652L25.211 19H23.2382L22.625 17.2271ZM22.1185 15.7341L20.7721 11.8418L19.4258 15.7341H22.1185ZM28.3279 9.1358V19H26.4617V9.1358H28.3279ZM32.3445 13.1481V16.7206C32.3445 16.9694 32.4022 17.1516 32.5177 17.2671C32.6422 17.3737 32.8466 17.4271 33.1309 17.4271H33.9974V19H32.8243C31.2514 19 30.4649 18.2357 30.4649 16.7072V13.1481H29.5851V11.6152H30.4649V9.78897H32.3445V11.6152H33.9974V13.1481H32.3445ZM34.8598 15.2809C34.8598 14.5344 35.0064 13.8724 35.2997 13.2948C35.6018 12.7171 36.0061 12.2728 36.5127 11.9618C37.0281 11.6507 37.6013 11.4952 38.2323 11.4952C38.7832 11.4952 39.2631 11.6063 39.6719 11.8285C40.0896 12.0506 40.4228 12.3306 40.6716 12.6682V11.6152H42.5512V19H40.6716V17.9203C40.4317 18.2668 40.0985 18.5557 39.6719 18.7867C39.2542 19.0089 38.7699 19.12 38.2189 19.12C37.5969 19.12 37.0281 18.96 36.5127 18.6401C36.0061 18.3202 35.6018 17.8714 35.2997 17.2938C35.0064 16.7072 34.8598 16.0363 34.8598 15.2809ZM40.6716 15.3076C40.6716 14.8544 40.5828 14.4678 40.405 14.1479C40.2273 13.8191 39.9874 13.5702 39.6852 13.4014C39.3831 13.2237 39.0587 13.1348 38.7121 13.1348C38.3656 13.1348 38.0456 13.2192 37.7524 13.3881C37.4591 13.5569 37.2192 13.8057 37.0326 14.1345C36.8548 14.4545 36.766 14.8366 36.766 15.2809C36.766 15.7253 36.8548 16.1163 37.0326 16.454C37.2192 16.7828 37.4591 17.036 37.7524 17.2138C38.0545 17.3915 38.3744 17.4804 38.7121 17.4804C39.0587 17.4804 39.3831 17.396 39.6852 17.2271C39.9874 17.0494 40.2273 16.8005 40.405 16.4806C40.5828 16.1518 40.6716 15.7608 40.6716 15.3076ZM54.3351 12.5749C54.3351 13.0726 54.2151 13.5391 53.9752 13.9746C53.7441 14.41 53.3753 14.7611 52.8688 15.0277C52.3711 15.2943 51.7402 15.4276 50.9759 15.4276H49.4163V19H47.5501V9.69566H50.9759C51.6958 9.69566 52.3089 9.82007 52.8155 10.0689C53.322 10.3177 53.6997 10.6599 53.9485 11.0953C54.2062 11.5308 54.3351 12.024 54.3351 12.5749ZM50.896 13.9213C51.4114 13.9213 51.7935 13.8057 52.0423 13.5747C52.2912 13.3347 52.4156 13.0015 52.4156 12.5749C52.4156 11.6685 51.909 11.2153 50.896 11.2153H49.4163V13.9213H50.896ZM57.5263 12.7616C57.7662 12.3705 58.0773 12.064 58.4594 11.8418C58.8504 11.6196 59.2947 11.5085 59.7924 11.5085V13.468H59.2992C58.7127 13.468 58.2683 13.6058 57.9662 13.8813C57.6729 14.1568 57.5263 14.6366 57.5263 15.3209V19H55.6601V11.6152H57.5263V12.7616ZM61.9958 10.7354C61.667 10.7354 61.3915 10.6332 61.1693 10.4288C60.956 10.2155 60.8494 9.95337 60.8494 9.64234C60.8494 9.33131 60.956 9.07359 61.1693 8.8692C61.3915 8.65592 61.667 8.54928 61.9958 8.54928C62.3246 8.54928 62.5956 8.65592 62.8089 8.8692C63.0311 9.07359 63.1422 9.33131 63.1422 9.64234C63.1422 9.95337 63.0311 10.2155 62.8089 10.4288C62.5956 10.6332 62.3246 10.7354 61.9958 10.7354ZM62.9156 11.6152V19H61.0494V11.6152H62.9156ZM68.0385 19.12C67.3276 19.12 66.6878 18.9645 66.119 18.6534C65.5503 18.3335 65.1015 17.8847 64.7727 17.3071C64.4528 16.7295 64.2928 16.063 64.2928 15.3076C64.2928 14.5522 64.4572 13.8857 64.786 13.3081C65.1237 12.7305 65.5814 12.2861 66.159 11.9751C66.7367 11.6552 67.3809 11.4952 68.0919 11.4952C68.8028 11.4952 69.4471 11.6552 70.0247 11.9751C70.6024 12.2861 71.0556 12.7305 71.3844 13.3081C71.7221 13.8857 71.8909 14.5522 71.8909 15.3076C71.8909 16.063 71.7176 16.7295 71.371 17.3071C71.0334 17.8847 70.5712 18.3335 69.9847 18.6534C69.4071 18.9645 68.7584 19.12 68.0385 19.12ZM68.0385 17.4937C68.3762 17.4937 68.6917 17.4137 68.985 17.2538C69.2871 17.0849 69.5271 16.8361 69.7048 16.5073C69.8825 16.1785 69.9714 15.7786 69.9714 15.3076C69.9714 14.6055 69.7848 14.0679 69.4115 13.6947C69.0472 13.3125 68.5984 13.1215 68.0652 13.1215C67.532 13.1215 67.0832 13.3125 66.7189 13.6947C66.3634 14.0679 66.1857 14.6055 66.1857 15.3076C66.1857 16.0096 66.359 16.5517 66.7055 16.9338C67.061 17.3071 67.5053 17.4937 68.0385 17.4937ZM75.126 12.7616C75.366 12.3705 75.677 12.064 76.0591 11.8418C76.4502 11.6196 76.8945 11.5085 77.3921 11.5085V13.468H76.8989C76.3124 13.468 75.8681 13.6058 75.5659 13.8813C75.2727 14.1568 75.126 14.6366 75.126 15.3209V19H73.2598V11.6152H75.126V12.7616ZM79.5956 10.7354C79.2667 10.7354 78.9913 10.6332 78.7691 10.4288C78.5558 10.2155 78.4492 9.95337 78.4492 9.64234C78.4492 9.33131 78.5558 9.07359 78.7691 8.8692C78.9913 8.65592 79.2667 8.54928 79.5956 8.54928C79.9244 8.54928 80.1954 8.65592 80.4087 8.8692C80.6309 9.07359 80.7419 9.33131 80.7419 9.64234C80.7419 9.95337 80.6309 10.2155 80.4087 10.4288C80.1954 10.6332 79.9244 10.7354 79.5956 10.7354ZM80.5153 11.6152V19H78.6491V11.6152H80.5153ZM81.8793 15.2809C81.8793 14.5344 82.0259 13.8724 82.3191 13.2948C82.6213 12.7171 83.0301 12.2728 83.5455 11.9618C84.0609 11.6507 84.6341 11.4952 85.2651 11.4952C85.745 11.4952 86.2026 11.6018 86.6381 11.8151C87.0735 12.0195 87.4201 12.295 87.6778 12.6416V9.1358H89.5707V19H87.6778V17.9069C87.4467 18.2713 87.1224 18.5646 86.7047 18.7867C86.287 19.0089 85.8027 19.12 85.2517 19.12C84.6297 19.12 84.0609 18.96 83.5455 18.6401C83.0301 18.3202 82.6213 17.8714 82.3191 17.2938C82.0259 16.7072 81.8793 16.0363 81.8793 15.2809ZM87.6911 15.3076C87.6911 14.8544 87.6023 14.4678 87.4245 14.1479C87.2468 13.8191 87.0069 13.5702 86.7047 13.4014C86.4026 13.2237 86.0782 13.1348 85.7316 13.1348C85.385 13.1348 85.0651 13.2192 84.7719 13.3881C84.4786 13.5569 84.2387 13.8057 84.052 14.1345C83.8743 14.4545 83.7854 14.8366 83.7854 15.2809C83.7854 15.7253 83.8743 16.1163 84.052 16.454C84.2387 16.7828 84.4786 17.036 84.7719 17.2138C85.074 17.3915 85.3939 17.4804 85.7316 17.4804C86.0782 17.4804 86.4026 17.396 86.7047 17.2271C87.0069 17.0494 87.2468 16.8005 87.4245 16.4806C87.6023 16.1518 87.6911 15.7608 87.6911 15.3076ZM90.9135 15.2809C90.9135 14.5344 91.0601 13.8724 91.3533 13.2948C91.6555 12.7171 92.0598 12.2728 92.5664 11.9618C93.0818 11.6507 93.655 11.4952 94.2859 11.4952C94.8369 11.4952 95.3168 11.6063 95.7256 11.8285C96.1433 12.0506 96.4765 12.3306 96.7253 12.6682V11.6152H98.6049V19H96.7253V17.9203C96.4854 18.2668 96.1521 18.5557 95.7256 18.7867C95.3079 19.0089 94.8236 19.12 94.2726 19.12C93.6505 19.12 93.0818 18.96 92.5664 18.6401C92.0598 18.3202 91.6555 17.8714 91.3533 17.2938C91.0601 16.7072 90.9135 16.0363 90.9135 15.2809ZM96.7253 15.3076C96.7253 14.8544 96.6365 14.4678 96.4587 14.1479C96.281 13.8191 96.0411 13.5702 95.7389 13.4014C95.4368 13.2237 95.1124 13.1348 94.7658 13.1348C94.4192 13.1348 94.0993 13.2192 93.8061 13.3881C93.5128 13.5569 93.2729 13.8057 93.0862 14.1345C92.9085 14.4545 92.8196 14.8366 92.8196 15.2809C92.8196 15.7253 92.9085 16.1163 93.0862 16.454C93.2729 16.7828 93.5128 17.036 93.8061 17.2138C94.1082 17.3915 94.4281 17.4804 94.7658 17.4804C95.1124 17.4804 95.4368 17.396 95.7389 17.2271C96.0411 17.0494 96.281 16.8005 96.4587 16.4806C96.6365 16.1518 96.7253 15.7608 96.7253 15.3076ZM99.9476 15.2809C99.9476 14.5344 100.094 13.8724 100.388 13.2948C100.69 12.7171 101.098 12.2728 101.614 11.9618C102.129 11.6507 102.703 11.4952 103.333 11.4952C103.813 11.4952 104.271 11.6018 104.706 11.8151C105.142 12.0195 105.488 12.295 105.746 12.6416V9.1358H107.639V19H105.746V17.9069C105.515 18.2713 105.191 18.5646 104.773 18.7867C104.355 19.0089 103.871 19.12 103.32 19.12C102.698 19.12 102.129 18.96 101.614 18.6401C101.098 18.3202 100.69 17.8714 100.388 17.2938C100.094 16.7072 99.9476 16.0363 99.9476 15.2809ZM105.76 15.3076C105.76 14.8544 105.671 14.4678 105.493 14.1479C105.315 13.8191 105.075 13.5702 104.773 13.4014C104.471 13.2237 104.147 13.1348 103.8 13.1348C103.453 13.1348 103.134 13.2192 102.84 13.3881C102.547 13.5569 102.307 13.8057 102.12 14.1345C101.943 14.4545 101.854 14.8366 101.854 15.2809C101.854 15.7253 101.943 16.1163 102.12 16.454C102.307 16.7828 102.547 17.036 102.84 17.2138C103.142 17.3915 103.462 17.4804 103.8 17.4804C104.147 17.4804 104.471 17.396 104.773 17.2271C105.075 17.0494 105.315 16.8005 105.493 16.4806C105.671 16.1518 105.76 15.7608 105.76 15.3076ZM116.327 15.1476C116.327 15.4142 116.309 15.6542 116.273 15.8674H110.875C110.919 16.4006 111.106 16.8183 111.435 17.1205C111.763 17.4226 112.168 17.5737 112.648 17.5737C113.341 17.5737 113.834 17.276 114.127 16.6806H116.14C115.927 17.3915 115.518 17.978 114.914 18.4401C114.309 18.8934 113.567 19.12 112.688 19.12C111.977 19.12 111.337 18.9645 110.768 18.6534C110.208 18.3335 109.768 17.8847 109.448 17.3071C109.137 16.7295 108.982 16.063 108.982 15.3076C108.982 14.5433 109.137 13.8724 109.448 13.2948C109.759 12.7171 110.195 12.2728 110.755 11.9618C111.315 11.6507 111.959 11.4952 112.688 11.4952C113.39 11.4952 114.016 11.6463 114.567 11.9484C115.127 12.2506 115.558 12.6816 115.86 13.2414C116.171 13.7924 116.327 14.4278 116.327 15.1476ZM114.394 14.6144C114.385 14.1345 114.212 13.7524 113.874 13.468C113.536 13.1748 113.123 13.0282 112.634 13.0282C112.172 13.0282 111.781 13.1703 111.461 13.4547C111.15 13.7302 110.959 14.1168 110.888 14.6144H114.394Z" fill="#702D08"/>
</svg>
