<svg width="15" height="15" viewBox="0 0 15 15" fill="none" xmlns="http://www.w3.org/2000/svg">
<path d="M0.292786 1.29299C0.480314 1.10552 0.734622 1.0002 0.999786 1.0002C1.26495 1.0002 1.51926 1.10552 1.70679 1.29299L6.99979 6.58599L12.2928 1.29299C12.385 1.19748 12.4954 1.1213 12.6174 1.06889C12.7394 1.01648 12.8706 0.988893 13.0034 0.987739C13.1362 0.986585 13.2678 1.01189 13.3907 1.06217C13.5136 1.11245 13.6253 1.1867 13.7192 1.28059C13.8131 1.37449 13.8873 1.48614 13.9376 1.60904C13.9879 1.73193 14.0132 1.86361 14.012 1.99639C14.0109 2.12917 13.9833 2.26039 13.9309 2.38239C13.8785 2.5044 13.8023 2.61474 13.7068 2.70699L8.41378 7.99999L13.7068 13.293C13.8889 13.4816 13.9897 13.7342 13.9875 13.9964C13.9852 14.2586 13.88 14.5094 13.6946 14.6948C13.5092 14.8802 13.2584 14.9854 12.9962 14.9877C12.734 14.9899 12.4814 14.8891 12.2928 14.707L6.99979 9.41399L1.70679 14.707C1.51818 14.8891 1.26558 14.9899 1.00339 14.9877C0.741188 14.9854 0.490376 14.8802 0.304968 14.6948C0.11956 14.5094 0.0143909 14.2586 0.0121125 13.9964C0.00983408 13.7342 0.110628 13.4816 0.292786 13.293L5.58579 7.99999L0.292786 2.70699C0.105315 2.51946 0 2.26515 0 1.99999C0 1.73483 0.105315 1.48052 0.292786 1.29299Z" fill="#029008"/>
</svg>
